<svg data-name="Popile Logo" xmlns="http://www.w3.org/2000/svg" viewBox="0 0 512 512"><path class="cls-2" d="M445.664 329.798 160.272 491.786V348.9a126.444 126.444 0 0 0 79.084 29.418h2.291a117.671 117.671 0 0 0 82.525-34.003 129.14 129.14 0 0 0 38.969-89.016 121.502 121.502 0 0 0-34.766-86.727 126.087 126.087 0 0 0-88.637-37.059c-68.155 0-123.402 55.249-123.402 123.403v251.771c-38.761.208-70.3-31.153-70.297-69.915V73.061c.1-53.472 57.743-87.043 104.3-60.748l295.325 167.721c57.644 33.089 57.845 116.173.366 149.55-.123.073-.244.141-.366.214Zm-152.056-17.193a82.54 82.54 0 0 0 25.599-58.071 76.43 76.43 0 0 0-22.161-55.015c-43.102-43.825-117.48-24.555-133.883 34.686a79.747 79.747 0 0 0-2.891 20.711c0 43.554 35.148 78.32 79.848 79.466a74.516 74.516 0 0 0 53.488-21.777Z" style="fill:#955fff"/></svg>
